<svg width="109" height="259" viewBox="0 0 109 259" fill="none" xmlns="http://www.w3.org/2000/svg">
<path d="M0 259V0C16.5551 0 51.3423 42.7694 42.1403 67.2614C24.5818 113.995 64.7155 83.8583 77.7589 155.051C88.1936 212.004 30.2674 248.081 0 259Z" fill="#9A9945"/>
<path d="M92.1133 147.558C91.7037 145.779 90.4335 144.35 88.7152 143.735C86.997 143.12 85.1084 143.419 83.6634 144.534L80.1812 147.22C79.6035 147.666 79.1933 148.273 78.995 148.975C78.7967 149.677 78.8291 150.409 79.0884 151.092C79.3482 151.774 79.8107 152.342 80.4259 152.735C81.0411 153.128 81.7513 153.308 82.4795 153.257L82.5284 153.253C84.3558 153.138 86.1628 153.791 87.4935 155.051C87.8368 155.376 88.236 155.621 88.6716 155.777C88.9084 155.862 89.1562 155.92 89.4115 155.951C90.1362 156.037 90.8542 155.892 91.488 155.529C92.1214 155.167 92.6109 154.622 92.9035 153.953C93.1961 153.284 93.2641 152.555 93.1004 151.844L92.1133 147.558Z" fill="#094067" fill-opacity="0.8"/>
<path d="M82.0324 143.945C82.7885 143.928 83.4853 143.573 83.9943 142.945C84.4787 142.349 84.7349 141.571 84.7155 140.755C84.6958 139.94 84.403 139.175 83.8909 138.602C83.3529 138 82.6402 137.678 81.885 137.696C80.366 137.732 79.1628 139.163 79.2026 140.887C79.236 142.259 80.0482 143.409 81.1449 143.801C81.425 143.902 81.7236 143.952 82.0324 143.945Z" fill="#094067" fill-opacity="0.8"/>
<path d="M87.3457 142.765C89.0149 143.363 90.9266 142.302 91.6072 140.4C92.288 138.498 91.4838 136.464 89.8146 135.867C88.1456 135.27 86.2339 136.331 85.5531 138.233C84.8725 140.135 85.6766 142.168 87.3457 142.765Z" fill="#094067" fill-opacity="0.8"/>
<path d="M92.2705 145.484L92.2706 145.484C92.4969 145.661 92.7443 145.796 93.0051 145.889C94.2224 146.325 95.7259 145.863 96.6658 144.663C97.2071 143.973 97.4865 143.138 97.4527 142.313C97.4175 141.449 97.0476 140.698 96.4112 140.2C95.7746 139.701 94.9575 139.522 94.1102 139.694C93.3008 139.859 92.5571 140.33 92.0162 141.021C90.8749 142.477 90.989 144.48 92.2705 145.484Z" fill="#094067" fill-opacity="0.8"/>
<path d="M98.7896 147.363L98.7893 147.362C97.9425 146.1 96.0891 145.852 94.6572 146.811C93.2261 147.77 92.7492 149.578 93.5941 150.84C93.9021 151.301 94.3443 151.626 94.8512 151.808C95.7347 152.124 96.8153 152.002 97.7265 151.393C99.1575 150.433 99.6345 148.626 98.7896 147.363Z" fill="#094067" fill-opacity="0.8"/>
<path d="M58.2811 161.693C57.8715 159.914 56.6012 158.485 54.8829 157.87C53.1647 157.255 51.2761 157.554 49.8312 158.669L46.349 161.355C45.7712 161.801 45.361 162.408 45.1627 163.11C44.9644 163.812 44.9968 164.544 45.2561 165.226C45.516 165.908 45.9785 166.476 46.5936 166.869C47.2088 167.262 47.919 167.443 48.6472 167.391L48.6961 167.388C50.5235 167.272 52.3306 167.926 53.6613 169.186C54.0046 169.511 54.4038 169.756 54.8393 169.912C55.0761 169.996 55.3239 170.055 55.5792 170.085C56.3039 170.172 57.0219 170.026 57.6557 169.664C58.2891 169.302 58.7786 168.757 59.0712 168.088C59.3638 167.419 59.4318 166.69 59.2681 165.978L58.2811 161.693Z" fill="#094067" fill-opacity="0.8"/>
<path d="M48.2001 158.08C48.9563 158.062 49.653 157.707 50.162 157.08C50.6464 156.483 50.9026 155.706 50.8833 154.89C50.8636 154.075 50.5707 153.31 50.0586 152.737C49.5206 152.135 48.808 151.813 48.0527 151.831C46.5338 151.867 45.3305 153.297 45.3703 155.021C45.4037 156.394 46.216 157.544 47.3127 157.936C47.5927 158.036 47.8913 158.087 48.2001 158.08Z" fill="#094067" fill-opacity="0.8"/>
<path d="M53.5134 156.9C55.1826 157.498 57.0943 156.437 57.775 154.535C58.4557 152.633 57.6515 150.599 55.9823 150.002C54.3133 149.404 52.4016 150.466 51.7208 152.368C51.0402 154.27 51.8444 156.303 53.5134 156.9Z" fill="#094067" fill-opacity="0.8"/>
<path d="M58.4382 159.619L58.4384 159.619C58.6646 159.796 58.912 159.93 59.1729 160.024C60.3902 160.459 61.8936 159.998 62.8336 158.798C63.3748 158.108 63.6542 157.273 63.6204 156.447C63.5852 155.583 63.2153 154.833 62.5789 154.335C61.9424 153.836 61.1252 153.656 60.2779 153.829C59.4685 153.994 58.7248 154.465 58.1839 155.155C57.0427 156.612 57.1567 158.614 58.4382 159.619Z" fill="#094067" fill-opacity="0.8"/>
<path d="M64.9573 161.498L64.957 161.497C64.1102 160.235 62.2568 159.987 60.8249 160.946C59.3938 161.905 58.917 163.712 59.7618 164.975C60.0699 165.435 60.512 165.761 61.0189 165.942C61.9024 166.259 62.983 166.137 63.8943 165.527C65.3253 164.568 65.8022 162.76 64.9573 161.498Z" fill="#094067" fill-opacity="0.8"/>
<path d="M57.2811 113.693C56.8715 111.914 55.6012 110.485 53.883 109.87C52.1647 109.256 50.2762 109.554 48.8312 110.669L45.349 113.355C44.7713 113.801 44.361 114.408 44.1628 115.11C43.9644 115.813 43.9968 116.544 44.2562 117.227C44.516 117.909 44.9785 118.477 45.5937 118.87C46.2088 119.263 46.919 119.443 47.6473 119.392L47.6961 119.388C49.5236 119.273 51.3306 119.926 52.6613 121.186C53.0046 121.511 53.4038 121.756 53.8393 121.912C54.0761 121.997 54.324 122.055 54.5792 122.086C55.3039 122.173 56.0219 122.027 56.6557 121.664C57.2892 121.302 57.7787 120.757 58.0712 120.088C58.3638 119.419 58.4318 118.69 58.2682 117.979L57.2811 113.693Z" fill="#094067" fill-opacity="0.8"/>
<path d="M47.2001 110.08C47.9563 110.063 48.6531 109.708 49.162 109.081C49.6465 108.484 49.9027 107.706 49.8833 106.89C49.8636 106.075 49.5708 105.31 49.0586 104.737C48.5206 104.135 47.808 103.813 47.0528 103.831C45.5338 103.867 44.3305 105.298 44.3704 107.022C44.4038 108.394 45.216 109.544 46.3127 109.937C46.5927 110.037 46.8913 110.088 47.2001 110.08Z" fill="#094067" fill-opacity="0.8"/>
<path d="M52.5134 108.901C54.1826 109.498 56.0944 108.437 56.775 106.535C57.4558 104.633 56.6515 102.599 54.9824 102.002C53.3133 101.405 51.4016 102.466 50.7208 104.369C50.0402 106.27 50.8444 108.303 52.5134 108.901Z" fill="#094067" fill-opacity="0.8"/>
<path d="M57.4382 111.619L57.4384 111.619C57.6647 111.796 57.912 111.931 58.1729 112.024C59.3902 112.46 60.8936 111.998 61.8336 110.799C62.3748 110.108 62.6543 109.273 62.6205 108.448C62.5852 107.584 62.2154 106.833 61.579 106.335C60.9424 105.836 60.1253 105.657 59.278 105.829C58.4685 105.994 57.7249 106.465 57.184 107.156C56.0427 108.613 56.1568 110.615 57.4382 111.619Z" fill="#094067" fill-opacity="0.8"/>
<path d="M63.9574 113.498L63.9571 113.497C63.1103 112.235 61.2568 111.988 59.825 112.946C58.3938 113.905 57.917 115.713 58.7618 116.975C59.0699 117.436 59.5121 117.761 60.019 117.943C60.9025 118.259 61.983 118.137 62.8943 117.528C64.3253 116.568 64.8022 114.761 63.9574 113.498Z" fill="#094067" fill-opacity="0.8"/>
</svg>
