<svg width="114" height="254" viewBox="0 0 114 254" fill="none" xmlns="http://www.w3.org/2000/svg">
<path d="M75.1131 13.5017C106.336 7.17276 113.087 1.68771 125.322 0V254C56.1264 229.106 30.3888 162.02 32.0765 141.767C33.7642 121.515 39.6712 105.482 24.0599 69.196C8.44863 32.9103 43.8905 19.8306 75.1131 13.5017Z" fill="#CE7D45"/>
<path d="M24.1865 56.3097C22.6467 56.2753 21.214 57.0174 20.3542 58.2951C19.4944 59.5727 19.3463 61.1794 19.958 62.5927L21.4319 65.9988C21.6764 66.5638 22.0877 67.0254 22.6208 67.3335C23.1541 67.6415 23.7593 67.767 24.3713 67.6967C24.9831 67.6258 25.5438 67.3655 25.993 66.944C26.4421 66.5225 26.7371 65.9791 26.8464 65.3728L26.8536 65.3321C27.1387 63.8134 28.0488 62.4713 29.3555 61.6445C29.6925 61.4312 29.9758 61.1556 30.1938 60.8318C30.3123 60.6557 30.4115 60.4651 30.4896 60.2627C30.7111 59.688 30.7411 59.0705 30.5763 58.4769C30.4115 57.8835 30.0673 57.3699 29.5811 56.9917C29.0948 56.6135 28.5124 56.4064 27.8967 56.3925L24.1865 56.3097Z" fill="#094067" fill-opacity="0.8"/>
<path d="M19.1376 63.8045C19.2804 63.1824 19.1348 62.5388 18.7276 61.9923C18.3401 61.4721 17.7571 61.101 17.0859 60.9474C16.415 60.7942 15.7287 60.8749 15.1535 61.1747C14.5493 61.4896 14.1381 62.0057 13.9962 62.6272C13.7098 63.8769 14.63 65.1582 16.0483 65.4837C17.178 65.7415 18.287 65.316 18.8358 64.5005C18.976 64.2923 19.0796 64.0586 19.1376 63.8045Z" fill="#094067" fill-opacity="0.8"/>
<path d="M19.2766 59.2137C20.1119 57.9725 19.641 56.1885 18.227 55.2369C16.8125 54.285 14.9823 54.5204 14.147 55.7615C13.3118 57.0025 13.783 58.7866 15.1974 59.7385C16.6115 60.6901 18.4414 60.4547 19.2766 59.2137Z" fill="#094067" fill-opacity="0.8"/>
<path d="M22.5229 55.7503L22.523 55.7502C22.7148 55.6019 22.8762 55.4275 23.0067 55.2336C23.6159 54.3284 23.5507 53.0029 22.7648 51.985C22.3124 51.3989 21.6876 50.9969 21.0055 50.8531C20.2915 50.7025 19.601 50.8492 19.0611 51.2661C18.521 51.6832 18.2045 52.3142 18.1696 53.0431C18.1362 53.7393 18.3671 54.4454 18.8196 55.0313C19.7741 56.2673 21.4354 56.5898 22.5229 55.7503Z" fill="#094067" fill-opacity="0.8"/>
<path d="M25.4137 50.8089L25.4131 50.809C24.2048 51.2394 23.6174 52.704 24.1038 54.0741C24.5911 55.4439 25.9705 56.2093 27.1784 55.7805C27.6191 55.6242 27.9773 55.3302 28.231 54.9533C28.6731 54.2963 28.7978 53.3872 28.4886 52.5153C28.0012 51.1457 26.6219 50.3801 25.4137 50.8089Z" fill="#094067" fill-opacity="0.8"/>
<path d="M63.0037 109.473C61.464 109.438 60.0313 110.181 59.1714 111.458C58.3116 112.736 58.1636 114.342 58.7753 115.756L60.2492 119.162C60.4936 119.727 60.9049 120.189 61.4381 120.497C61.9713 120.805 62.5765 120.93 63.1885 120.86C63.8003 120.789 64.3611 120.529 64.8102 120.107C65.2594 119.686 65.5544 119.142 65.6636 118.536L65.6708 118.495C65.956 116.977 66.866 115.634 68.1727 114.808C68.5097 114.594 68.7931 114.319 69.011 113.995C69.1295 113.819 69.2287 113.628 69.3068 113.426C69.5283 112.851 69.5583 112.234 69.3936 111.64C69.2287 111.047 68.8846 110.533 68.3983 110.155C67.9121 109.777 67.3297 109.569 66.7139 109.556L63.0037 109.473Z" fill="#094067" fill-opacity="0.8"/>
<path d="M57.9549 116.967C58.0977 116.345 57.9521 115.702 57.5448 115.155C57.1573 114.635 56.5744 114.264 55.9032 114.11C55.2322 113.957 54.546 114.038 53.9707 114.338C53.3665 114.652 52.9554 115.169 52.8135 115.79C52.527 117.04 53.4473 118.321 54.8656 118.647C55.9953 118.904 57.1043 118.479 57.6531 117.663C57.7932 117.455 57.8968 117.221 57.9549 116.967Z" fill="#094067" fill-opacity="0.8"/>
<path d="M58.0938 112.377C58.9291 111.135 58.4583 109.351 57.0442 108.4C55.6298 107.448 53.7996 107.683 52.9643 108.924C52.1291 110.165 52.6002 111.949 54.0147 112.901C55.4287 113.853 57.2586 113.618 58.0938 112.377Z" fill="#094067" fill-opacity="0.8"/>
<path d="M61.34 108.913L61.3401 108.913C61.532 108.765 61.6933 108.59 61.8239 108.396C62.433 107.491 62.3679 106.166 61.5819 105.148C61.1296 104.562 60.5047 104.16 59.8227 104.016C59.1087 103.865 58.4182 104.012 57.8782 104.429C57.3381 104.846 57.0216 105.477 56.9867 106.206C56.9533 106.902 57.1843 107.608 57.6368 108.194C58.5912 109.43 60.2525 109.753 61.34 108.913Z" fill="#094067" fill-opacity="0.8"/>
<path d="M64.2308 103.972L64.2302 103.972C63.022 104.402 62.4345 105.867 62.9209 107.237C63.4083 108.607 64.7877 109.372 65.9956 108.943C66.4362 108.787 66.7944 108.493 67.0481 108.116C67.4902 107.459 67.6149 106.55 67.3058 105.678C66.8183 104.309 65.439 103.543 64.2308 103.972Z" fill="#094067" fill-opacity="0.8"/>
<path d="M14.0603 91.7516C12.5205 91.7172 11.0878 92.4593 10.228 93.737C9.36813 95.0146 9.2201 96.6213 9.83183 98.0346L11.3057 101.441C11.5502 102.006 11.9614 102.467 12.4946 102.775C13.0278 103.083 13.633 103.209 14.245 103.139C14.8568 103.068 15.4176 102.807 15.8667 102.386C16.3159 101.964 16.6109 101.421 16.7202 100.815L16.7273 100.774C17.0125 99.2553 17.9226 97.9132 19.2292 97.0864C19.5663 96.8731 19.8496 96.5975 20.0675 96.2737C20.186 96.0976 20.2852 95.907 20.3634 95.7046C20.5849 95.1299 20.6148 94.5124 20.4501 93.9188C20.2853 93.3254 19.9411 92.8118 19.4548 92.4336C18.9686 92.0554 18.3862 91.8483 17.7704 91.8344L14.0603 91.7516Z" fill="#094067" fill-opacity="0.8"/>
<path d="M9.0114 99.2464C9.1542 98.6243 9.0086 97.9807 8.60133 97.4342C8.21384 96.914 7.6309 96.5429 6.95969 96.3893C6.28875 96.2361 5.60253 96.3168 5.02725 96.6166C4.42305 96.9315 4.01189 97.4476 3.86999 98.0691C3.58355 99.3188 4.50381 100.6 5.92209 100.926C7.05179 101.183 8.16082 100.758 8.70963 99.9424C8.84976 99.7342 8.95334 99.5005 9.0114 99.2464Z" fill="#094067" fill-opacity="0.8"/>
<path d="M9.15036 94.6556C9.98565 93.4144 9.5148 91.6304 8.10073 90.6788C6.68632 89.7269 4.85609 89.9623 4.0208 91.2034C3.1856 92.4444 3.65676 94.2285 5.07117 95.1804C6.48524 96.132 8.31515 95.8966 9.15036 94.6556Z" fill="#094067" fill-opacity="0.8"/>
<path d="M12.3966 91.1922L12.3966 91.1921C12.5885 91.0438 12.7498 90.8694 12.8804 90.6754C13.4895 89.7703 13.4244 88.4448 12.6384 87.4269C12.1861 86.8408 11.5613 86.4388 10.8792 86.295C10.1652 86.1444 9.4747 86.291 8.93471 86.708C8.39464 87.1251 8.07814 87.7561 8.04322 88.485C8.00985 89.1812 8.24077 89.8873 8.69329 90.4731C9.64775 91.7092 11.309 92.0317 12.3966 91.1922Z" fill="#094067" fill-opacity="0.8"/>
<path d="M15.2875 86.2506L15.2869 86.2507C14.0786 86.6811 13.4912 88.1456 13.9776 89.5158C14.4649 90.8855 15.8443 91.6509 17.0522 91.2221C17.4929 91.0658 17.8511 90.7718 18.1048 90.3949C18.5469 89.738 18.6715 88.8289 18.3624 87.957C17.875 86.5873 16.4957 85.8218 15.2875 86.2506Z" fill="#094067" fill-opacity="0.8"/>
<path d="M61.3161 71.4992C59.7763 71.4648 58.3437 72.2069 57.4838 73.4845C56.624 74.7621 56.476 76.3688 57.0877 77.7822L58.5615 81.1882C58.806 81.7533 59.2173 82.2149 59.7504 82.5229C60.2837 82.831 60.8889 82.9565 61.5009 82.8861C62.1127 82.8153 62.6735 82.555 63.1226 82.1334C63.5717 81.7119 63.8668 81.1685 63.976 80.5622L63.9832 80.5215C64.2683 79.0029 65.1784 77.6607 66.4851 76.834C66.8221 76.6207 67.1054 76.3451 67.3234 76.0212C67.4419 75.8452 67.5411 75.6546 67.6192 75.4522C67.8407 74.8775 67.8707 74.26 67.7059 73.6663C67.5411 73.073 67.1969 72.5594 66.7107 72.1812C66.2244 71.803 65.6421 71.5959 65.0263 71.582L61.3161 71.4992Z" fill="#094067" fill-opacity="0.8"/>
<path d="M56.2673 78.9937C56.4101 78.3716 56.2645 77.728 55.8572 77.1815C55.4697 76.6613 54.8868 76.2902 54.2155 76.1366C53.5446 75.9834 52.8584 76.0641 52.2831 76.3639C51.6789 76.6788 51.2677 77.1949 51.1258 77.8164C50.8394 79.0661 51.7597 80.3474 53.1779 80.6729C54.3076 80.9307 55.4167 80.5052 55.9655 79.6897C56.1056 79.4815 56.2092 79.2478 56.2673 78.9937Z" fill="#094067" fill-opacity="0.8"/>
<path d="M56.4062 74.4029C57.2415 73.1617 56.7707 71.3777 55.3566 70.4261C53.9422 69.4742 52.1119 69.7096 51.2767 70.9507C50.4415 72.1918 50.9126 73.9758 52.327 74.9277C53.7411 75.8793 55.571 75.6439 56.4062 74.4029Z" fill="#094067" fill-opacity="0.8"/>
<path d="M59.6524 70.9395L59.6525 70.9394C59.8443 70.7911 60.0057 70.6167 60.1362 70.4228C60.7454 69.5176 60.6802 68.1921 59.8943 67.1742C59.4419 66.5881 58.8171 66.1861 58.135 66.0423C57.4211 65.8917 56.7306 66.0384 56.1906 66.4553C55.6505 66.8724 55.334 67.5034 55.2991 68.2323C55.2657 68.9285 55.4966 69.6346 55.9491 70.2205C56.9036 71.4565 58.5649 71.779 59.6524 70.9395Z" fill="#094067" fill-opacity="0.8"/>
<path d="M62.5432 65.9981L62.5426 65.9982C61.3343 66.4287 60.7469 67.8932 61.2333 69.2633C61.7207 70.6331 63.1 71.3985 64.3079 70.9697C64.7486 70.8134 65.1068 70.5194 65.3605 70.1425C65.8026 69.4855 65.9273 68.5764 65.6182 67.7045C65.1307 66.3349 63.7514 65.5694 62.5432 65.9981Z" fill="#094067" fill-opacity="0.8"/>
</svg>
